P3
5 4
255
2 2 2 5 3 1 0 0 0 0 0 0 0 0 0
2 5 21 57 3 18 0 0 0 0 0 0 0 0 0
0 0 0 0 0 0 0 0 0 0 0 0 0 0 0
0 0 0 0 0 0 0 0 0 0 0 0 0 0 0
